<?xml version="1.0" encoding="UTF-8"?>
<svg width="607px" height="73px" viewBox="0 0 607 73" version="1.1" xmlns="http://www.w3.org/2000/svg" xmlns:xlink="http://www.w3.org/1999/xlink">
    <!-- Generator: Sketch 58 (84663) - https://sketch.com -->
    <title>CBC_Listen_Logo_4c</title>
    <desc>Created with Sketch.</desc>
    <defs>
        <polygon id="path-1" points="0.434 0.414 69.288 0.414 69.288 72.94 0.434 72.94"></polygon>
    </defs>
    <g id="Page-1" stroke="none" stroke-width="1" fill="none" fill-rule="evenodd">
        <g id="Gem_logo" transform="translate(0.000000, -286.000000)">
            <g id="CBC_Listen_Logo_4c" transform="translate(0.000000, 286.000000)">
                <path d="M47.738,36.304 C47.738,43.246 42.11,48.873 35.168,48.873 C28.225,48.873 22.598,43.246 22.598,36.304 C22.598,29.361 28.225,23.733 35.168,23.733 C42.11,23.733 47.738,29.361 47.738,36.304" id="Fill-1" fill="#D8252D"></path>
                <path d="M20.659,48.873 C13.712,48.873 8.082,43.245 8.082,36.305 C8.082,29.361 13.712,23.728 20.658,23.728 L20.659,48.873" id="Fill-2" fill="#D8252D"></path>
                <path d="M49.688,62.742 L49.691,50.814 L61.625,50.819 C61.625,57.412 56.28,62.742 49.688,62.742" id="Fill-3" fill="#D8252D"></path>
                <path d="M20.658,9.852 L20.658,21.795 L8.709,21.796 C8.709,15.201 14.061,9.852 20.658,9.852" id="Fill-4" fill="#D8252D"></path>
                <path d="M20.659,62.75 L20.659,50.814 L8.712,50.819 C8.712,57.412 14.058,62.75 20.659,62.75" id="Fill-5" fill="#D8252D"></path>
                <path d="M64.213,47.107 L64.206,25.502 C67.886,27.694 70.352,31.71 70.352,36.305 C70.352,40.897 67.886,44.91 64.213,47.107" id="Fill-6" fill="#D8252D"></path>
                <path d="M24.37,7.267 L45.975,7.27 C43.783,3.589 39.771,1.129 35.176,1.129 C30.581,1.129 26.563,3.589 24.37,7.267" id="Fill-7" fill="#D8252D"></path>
                <path d="M45.816,65.339 L24.208,65.337 C26.402,69.015 30.416,71.481 35.012,71.481 C39.606,71.481 43.621,69.018 45.816,65.339" id="Fill-8" fill="#D8252D"></path>
                <path d="M47.742,50.819 C47.742,57.764 42.116,63.391 35.175,63.391 C28.23,63.391 22.598,57.764 22.598,50.819 L47.742,50.819" id="Fill-9" fill="#D8252D"></path>
                <path d="M49.691,48.873 C56.633,48.873 62.266,43.245 62.266,36.305 C62.266,29.361 56.633,23.728 49.691,23.728 L49.691,48.873" id="Fill-10" fill="#D8252D"></path>
                <g id="Group-14" transform="translate(0.000000, 9.000000)" fill="#D8252D">
                    <path d="M47.742,12.809 C47.742,5.868 42.116,0.239 35.175,0.239 C28.23,0.239 22.598,5.868 22.598,12.809 L47.742,12.809" id="Fill-11"></path>
                    <path d="M6.137,38.107 L6.142,16.502 C2.461,18.694 0,22.71 0,27.305 C0,31.897 2.461,35.91 6.137,38.107" id="Fill-13"></path>
                </g>
                <path d="M61.625,21.802 L49.691,21.795 L49.689,9.863 C56.28,9.863 61.625,15.205 61.625,21.802" id="Fill-15" fill="#D8252D"></path>
                <path d="M117.517,71.461 C97.5,71.461 82.632,56.011 82.632,36.479 L82.632,36.285 C82.632,16.947 97.208,1.108 118.1,1.108 C130.927,1.108 138.603,5.384 144.92,11.603 L135.397,22.584 C130.149,17.822 124.805,14.907 118.003,14.907 C106.537,14.907 98.277,24.43 98.277,36.09 L98.277,36.285 C98.277,47.945 106.342,57.663 118.003,57.663 C125.777,57.663 130.538,54.553 135.883,49.694 L145.406,59.315 C138.409,66.797 130.635,71.461 117.517,71.461" id="Fill-16" fill="#1B1A19"></path>
                <path d="M194.832,50.054 C194.832,45.33 191.314,42.416 183.374,42.416 L165.485,42.416 L165.485,57.894 L183.877,57.894 C190.711,57.894 194.832,55.481 194.832,50.255 L194.832,50.054 Z M190.912,21.913 C190.912,17.29 187.294,14.676 180.761,14.676 L165.485,14.676 L165.485,29.551 L179.756,29.551 C186.59,29.551 190.912,27.34 190.912,22.114 L190.912,21.913 Z M183.877,71.461 L150.409,71.461 L150.409,1.108 L183.073,1.108 C197.445,1.108 206.289,8.244 206.289,19.3 L206.289,19.501 C206.289,27.441 202.068,31.862 197.043,34.677 C205.183,37.792 210.209,42.516 210.209,51.964 L210.209,52.164 C210.209,65.028 199.756,71.461 183.877,71.461 L183.877,71.461 Z" id="Fill-17" fill="#1B1A19"></path>
                <path d="M249.397,71.461 C229.38,71.461 214.513,56.011 214.513,36.479 L214.513,36.285 C214.513,16.947 229.089,1.108 249.981,1.108 C262.807,1.108 270.484,5.384 276.8,11.603 L267.277,22.584 C262.03,17.822 256.685,14.907 249.883,14.907 C238.417,14.907 230.158,24.43 230.158,36.09 L230.158,36.285 C230.158,47.945 238.222,57.663 249.883,57.663 C257.657,57.663 262.419,54.553 267.763,49.694 L277.286,59.315 C270.29,66.797 262.515,71.461 249.397,71.461" id="Fill-18" fill="#1B1A19"></path>
                <polyline id="Fill-19" fill="#1B1A19" points="295.378 1.422 303.342 1.422 303.342 64.633 343.063 64.633 343.063 71.992 295.378 71.992 295.378 1.422"></polyline>
                <g id="Group-23" transform="translate(352.000000, 0.000000)">
                    <mask id="mask-2" fill="white">
                        <use xlink:href="#path-1"></use>
                    </mask>
                    <g id="Clip-21"></g>
                    <polygon id="Fill-20" fill="#1B1A19" mask="url(#mask-2)" points="0.434 71.992 8.398 71.992 8.398 1.422 0.434 1.422"></polygon>
                    <path d="M46.303,32.876 C62.03,36.304 69.288,42.05 69.288,52.939 C69.288,65.137 59.207,73 45.193,73 C34.003,73 24.829,69.271 16.36,61.709 L21.301,55.861 C28.66,62.516 35.717,65.843 45.496,65.843 C54.972,65.843 61.223,60.902 61.223,53.745 C61.223,47.091 57.695,43.36 42.875,40.235 C26.643,36.707 19.183,31.465 19.183,19.771 C19.183,8.479 28.963,0.414 42.371,0.414 C52.654,0.414 60.013,3.337 67.172,9.084 L62.534,15.233 C55.981,9.891 49.428,7.571 42.169,7.571 C32.995,7.571 27.147,12.612 27.147,19.065 C27.147,25.819 30.777,29.549 46.303,32.876" id="Fill-22" fill="#1B1A19" mask="url(#mask-2)"></path>
                </g>
                <polyline id="Fill-24" fill="#1B1A19" points="456.67 71.992 448.605 71.992 448.605 8.781 424.913 8.781 424.913 1.422 480.361 1.422 480.361 8.781 456.67 8.781 456.67 71.992"></polyline>
                <polyline id="Fill-25" fill="#1B1A19" points="538.225 8.681 495.178 8.681 495.178 32.775 533.688 32.775 533.688 40.034 495.178 40.034 495.178 64.733 538.729 64.733 538.729 71.992 487.213 71.992 487.213 1.422 538.225 1.422 538.225 8.681"></polyline>
                <polyline id="Fill-26" fill="#1B1A19" points="598.61 1.422 606.373 1.422 606.373 71.992 600.021 71.992 554.453 14.124 554.453 71.992 546.69 71.992 546.69 1.422 554.151 1.422 598.61 57.979 598.61 1.422"></polyline>
            </g>
        </g>
    </g>
</svg>